<svg xmlns="http://www.w3.org/2000/svg" width="21" height="21" viewBox="0 0 21 21">
  <g id="svgexport-6_1_" data-name="svgexport-6 (1)" transform="translate(0.001 0)">
    <path id="Path_18528" data-name="Path 18528" d="M9.679,14.19V11.319H6.808a.82.82,0,1,1,0-1.641H9.679V6.807a.82.82,0,0,1,1.641,0V9.678h2.871a.82.82,0,1,1,0,1.641H11.32V14.19a.82.82,0,0,1-1.641,0ZM17.924,3.075A10.5,10.5,0,0,0,3.075,17.924a10.5,10.5,0,0,0,12.858,1.562.82.82,0,1,0-.85-1.4,8.937,8.937,0,1,1,2.774-2.666.82.82,0,0,0,1.364.912,10.474,10.474,0,0,0-1.3-13.254Zm0,0" transform="translate(0 0)" fill="#fff"/>
  </g>
</svg>
