<svg xmlns="http://www.w3.org/2000/svg" width="37.057" height="37.057" viewBox="0 0 37.057 37.057">
  <path id="Path_16834" data-name="Path 16834" d="M36.574.483l-.005,0A1.66,1.66,0,0,0,35.408,0h0a1.647,1.647,0,0,0-1.027.36c-3.941,3.148-7.9,6.4-11.757,9.657q-1.408,1.189-2.817,2.395L9.088,1.694a2.718,2.718,0,0,0-3.838,0L.159,6.784a.543.543,0,0,0,.768.768L4.482,4l.777.777L1.7,8.329a.543.543,0,0,0,.768.768L6.026,5.542l.777.777L3.248,9.874a.543.543,0,0,0,.768.768L7.571,7.086l.777.777L4.793,11.418a.543.543,0,0,0,.768.768L9.115,8.631l.777.777L6.337,12.963a.543.543,0,0,0,.768.768l3.555-3.555.777.777L7.882,14.507a.543.543,0,0,0,.768.768L12.2,11.72l.777.777L9.426,16.052a.543.543,0,0,0,.768.768l3.555-3.555.777.777L10.971,17.6a.543.543,0,0,0,.768.768l3.555-3.555.8.8q-2.5,2.177-4.964,4.374h0c-.487.433-1.018.932-1.542,1.4a.546.546,0,0,0-.1.8h0a3.627,3.627,0,0,1-.247,4.847L7.606,28.677a3.8,3.8,0,1,1,.235-5.04.544.544,0,0,0,.786.061l.008-.007.005,0a.543.543,0,0,0-.048-.844,4.878,4.878,0,0,0-3.7-1.7H4.881a4.883,4.883,0,1,0,1.5,9.532,4.885,4.885,0,0,0,4.647,6.382h.006a4.883,4.883,0,0,0,3.491-8.3l1.108-1.26q2.933-3.264,5.8-6.554l.818.818-3.555,3.555a.543.543,0,0,0,.768.768l3.555-3.555.777.777-3.555,3.555a.543.543,0,0,0,.768.768l3.555-3.555.777.777-3.555,3.555a.543.543,0,0,0,.768.768l3.555-3.555.777.777-3.555,3.555a.543.543,0,0,0,.768.768l3.555-3.555.777.777L24.872,31.5a.543.543,0,0,0,.768.768l3.555-3.555.777.777-3.555,3.555a.543.543,0,0,0,.768.768l3.555-3.555.777.777-3.555,3.555a.543.543,0,0,0,.768.768L32.284,31.8l.777.777L29.506,36.13a.543.543,0,0,0,.768.768l3.938-3.938h0l1.151-1.151a2.714,2.714,0,0,0,0-3.838L24.634,17.241C28.8,12.385,32.831,7.516,36.7,2.677A1.647,1.647,0,0,0,36.574.483ZM5.249,3.23l.768-.768a1.63,1.63,0,0,1,2.3,0L18.979,13.121q-1.031.886-2.06,1.778ZM34.6,28.738a1.628,1.628,0,0,1,0,2.3l-.768.768L22.145,20.125q.894-1.028,1.78-2.058Zm-19.472-2.3A2.075,2.075,0,0,1,14.043,24.9a.543.543,0,0,0-1.078.127h0a2.959,2.959,0,0,0,1.318,2.146c.038.025.077.051.117.08-.377.43-.687.791-1.044,1.185a.544.544,0,0,0,.061.786,3.8,3.8,0,1,1-6.189,2.954A3.881,3.881,0,0,1,8.4,29.419l1.61-1.61a4.714,4.714,0,0,0,1.377-3.34,4.641,4.641,0,0,0-.756-2.554c.425-.389.795-.734,1.224-1.116l0,0C23.627,10.3,34.918,1.28,35.13,1.159c-.146.146-21.325,21.316-21.423,21.426a.543.543,0,1,0,.812.721c.065-.074,21.223-21.225,21.378-21.38C35.854,2,27.112,13.077,15.124,26.437Z" transform="translate(0)" fill="#64c0ec"/>
</svg>
