<svg xmlns="http://www.w3.org/2000/svg" width="10.397" height="39.727" viewBox="0 0 10.397 39.727">
  <path id="Path_16844" data-name="Path 16844" d="M9.621,0a.776.776,0,0,0-.776.776v8.38h-1.4s0-.009,0-.013V.776A.776.776,0,0,0,5.9.776V9.143s0,.009,0,.013H4.5s0-.009,0-.013V.776a.776.776,0,1,0-1.552,0V9.143s0,.009,0,.013h-1.4V.776A.776.776,0,0,0,0,.776v9.466a4.778,4.778,0,0,0,2.871,4.364V37.4a2.328,2.328,0,0,0,4.655,0V14.606A4.779,4.779,0,0,0,10.4,10.242V.776A.776.776,0,0,0,9.621,0ZM6.535,13.316a.776.776,0,0,0-.561.745V37.4a.776.776,0,0,1-1.552,0V14.062a.776.776,0,0,0-.561-.745,3.217,3.217,0,0,1-2.275-2.609H8.81A3.217,3.217,0,0,1,6.535,13.316Z" fill="#64c0ec"/>
</svg>
