<svg xmlns="http://www.w3.org/2000/svg" width="7.294" height="39.727" viewBox="0 0 7.294 39.727">
  <path id="Path_16838" data-name="Path 16838" d="M424.882.091a.776.776,0,0,0-.8.042A13.8,13.8,0,0,0,418,11.585V21.653a4.017,4.017,0,0,0,1.184,2.859l1.454,1.454V37.4a2.328,2.328,0,0,0,4.656,0V.776A.776.776,0,0,0,424.882.091ZM423.742,37.4a.776.776,0,0,1-1.552,0V25.644a.776.776,0,0,0-.227-.549l-1.681-1.681a2.474,2.474,0,0,1-.729-1.761V11.585a12.252,12.252,0,0,1,4.19-9.234Z" transform="translate(-418)" fill="#64c0ec"/>
</svg>
