<svg xmlns="http://www.w3.org/2000/svg" width="41.743" height="41.743" viewBox="0 0 41.743 41.743">
  <path id="Path_16845" data-name="Path 16845" d="M41.091,37.83H38.482V35.986a5.171,5.171,0,0,0,.815-.134.652.652,0,0,0,.486-.693L38.669,23.45c.013,0,.025-.01.038-.015s.033-.012.05-.02a.674.674,0,0,0,.378-.587V15.654h.652A.652.652,0,0,0,40.439,15V12.393a.751.751,0,0,0-.308-.554L21.216.1a.653.653,0,0,0-.688,0L1.613,11.838a.752.752,0,0,0-.308.554V15a.652.652,0,0,0,.652.652h.652v7.175a.676.676,0,0,0,.377.587c.017.008.033.014.051.02s.024.011.037.015L1.96,35.159a.652.652,0,0,0,.486.693,5.182,5.182,0,0,0,.815.134V37.83H.652A.652.652,0,0,0,0,38.482v2.609a.652.652,0,0,0,.652.652H41.091a.652.652,0,0,0,.652-.652V38.482a.652.652,0,0,0-.652-.652Zm-33.916,0V34.793a5.045,5.045,0,0,0,.409-.363l.052-.052a.652.652,0,0,0,.19-.5l-.018-.347.413.082a2.464,2.464,0,0,0,.513.053,2.577,2.577,0,0,0,2.286-1.417.654.654,0,0,0,.059-.4l-1.8-10.239a10.584,10.584,0,0,0,4.05-5.38l.013-.037a3.888,3.888,0,0,0,2.318.767h1.267a2.375,2.375,0,0,0,1.777.505,2.355,2.355,0,0,0,4.349,0,2.361,2.361,0,0,0,1.778-.505H26.09a3.888,3.888,0,0,0,2.318-.768l.013.038a10.585,10.585,0,0,0,4.05,5.38l-1.8,10.239a.649.649,0,0,0,.059.4,2.578,2.578,0,0,0,2.286,1.417,2.46,2.46,0,0,0,.506-.052l.42-.084-.018.347a.651.651,0,0,0,.19.5l.052.052a5,5,0,0,0,.409.363V37.83H7.175ZM3.831,34.711l-.037,0a4.45,4.45,0,0,1-.479-.024L4.388,23.414a10.588,10.588,0,0,0,1.566-.285l.553,10.524a3.777,3.777,0,0,1-.365.288,4.174,4.174,0,0,1-2.311.77ZM8.076,22.328l1.676,9.507a1.232,1.232,0,0,1-1.269.5l-.745-.148-.5-9.483c.285-.115.565-.239.838-.378ZM2.609,14.349v-1.3H11.74a3.888,3.888,0,0,0,.228,1.3Zm24.785-1.957h1.3v.652a2.612,2.612,0,0,1-2.609,2.609h-.444a2.369,2.369,0,0,0-.425-1.957,2.352,2.352,0,0,0,.136-.209A3.891,3.891,0,0,0,27,12.436a2.605,2.605,0,0,1,.4-.043Zm-.652-2.609a2.6,2.6,0,0,1-1.073,2.1,2.32,2.32,0,0,0-2.1-1.958,2.586,2.586,0,0,1,1.871-.8h1.3Zm-4.819,1a.652.652,0,0,0,.945.546,1.053,1.053,0,0,1,1.052,1.821.652.652,0,0,0,0,1.091,1.058,1.058,0,0,1,.341,1.412,1.037,1.037,0,0,1-.145.19h0a1.06,1.06,0,0,1-1.247.218.652.652,0,0,0-.945.546,1.053,1.053,0,0,1-2.1,0,.652.652,0,0,0-.945-.546,1.058,1.058,0,0,1-1.247-.219h0a1.037,1.037,0,0,1-.145-.191,1.057,1.057,0,0,1,.341-1.411.652.652,0,0,0,0-1.091,1.053,1.053,0,0,1,1.051-1.821.652.652,0,0,0,.945-.546,1.053,1.053,0,0,1,2.1,0Zm-5.57.3a2.335,2.335,0,0,0-.278.8A2.6,2.6,0,0,1,15,9.784V9.131h1.3a2.586,2.586,0,0,1,1.872.8,2.35,2.35,0,0,0-1.825,1.16Zm-1.605,1.348a3.892,3.892,0,0,0,1.638,1.052,2.334,2.334,0,0,0,.136.209,2.369,2.369,0,0,0-.425,1.957h-.444a2.612,2.612,0,0,1-2.609-2.609v-.652h1.3a2.614,2.614,0,0,1,.4.043ZM37.356,23.414l1.072,11.275a4.069,4.069,0,0,1-.442.024,1.273,1.273,0,0,1-.138-.006,4.1,4.1,0,0,1-2.255-.77,3.789,3.789,0,0,1-.357-.282l.554-10.524a10.588,10.588,0,0,0,1.566.285Zm-3.349,8.775-.753.15a1.271,1.271,0,0,1-1.262-.5l1.675-9.507c.273.139.553.263.839.378Zm1.866,3.38a5.178,5.178,0,0,0,1.3.376V37.83h-1.3ZM37.83,21.533a7.549,7.549,0,0,1-2.622-4.05.652.652,0,0,0-1.279.256,8.34,8.34,0,0,0,2.395,4.181,9.288,9.288,0,0,1-6.667-6.1l-.054-.162H37.83v5.879Zm1.3-7.184h-9.36a3.888,3.888,0,0,0,.228-1.3h9.131ZM20.872,1.42,37.5,11.74H30a.652.652,0,0,0-.652-.652H27.823a3.921,3.921,0,0,0,.223-1.3v-1.3a.652.652,0,0,0-.652-.652H25.437a3.881,3.881,0,0,0-2.931,1.32,2.336,2.336,0,0,0-3.27,0,3.881,3.881,0,0,0-2.931-1.32H14.349a.652.652,0,0,0-.652.652v1.3a3.92,3.92,0,0,0,.223,1.3H12.393a.652.652,0,0,0-.652.652h-7.5ZM12.14,15.654l-.054.162a9.286,9.286,0,0,1-6.667,6.1,8.338,8.338,0,0,0,2.395-4.181.652.652,0,1,0-1.279-.256A7.57,7.57,0,0,1,3.913,21.53V15.654H12.14ZM4.566,35.944a5.287,5.287,0,0,0,1.3-.376V37.83h-1.3Zm35.873,4.494H1.3v-1.3H40.439Z" transform="translate(0 0)" fill="#64c0ec"/>
</svg>
