<svg xmlns="http://www.w3.org/2000/svg" width="15.471" height="17.532" viewBox="0 0 15.471 17.532">
  <path id="XMLID_5_" d="M34.492,24.2a.929.929,0,0,1-.709-.328l-6.561-7.7a.932.932,0,0,1,.114-1.321c3.291-2.74,8.635-7.223,9.232-7.817a.933.933,0,0,1,1.394-.1l4.228,4.12a.932.932,0,0,1,.144,1.153L35.286,23.752a.933.933,0,0,1-.721.444.622.622,0,0,1-.073,0Zm-5.239-8.517,5.113,6,5.991-9.815L37.3,8.887C36.239,9.859,34,11.73,29.253,15.682Z" transform="translate(-26.999 -6.667)" fill="#64c0ec"/>
</svg>
